<svg height="512" viewBox="0 0 512 512" width="512" xmlns="http://www.w3.org/2000/svg"><g><g fill="#57a4ff"><path d="m256 256a96 96 0 0 0 -96 96 94.828 94.828 0 0 0 1.34 16h189.32a94.828 94.828 0 0 0 1.34-16 96 96 0 0 0 -96-96zm16 104h-32v-72h32z"/><path d="m256 256a96 96 0 0 0 -96 96 94.828 94.828 0 0 0 1.34 16 96 96 0 0 0 189.32 0 94.828 94.828 0 0 0 1.34-16 96 96 0 0 0 -96-96zm16 160h-32v-32h32zm-32-128h32v72h-32z"/></g><g fill="#004fac"><path d="m438.84 162.25c-3-59.06-52.11-106.25-111.84-106.25a112.386 112.386 0 0 0 -93.97 51.04 104.112 104.112 0 0 0 -121.05 60.96 104 104 0 0 0 -10.97 207.42 7.846 7.846 0 0 0 2.99.58h50.8a104.009 104.009 0 0 0 202.4 0h42.8a8.028 8.028 0 0 0 2.83-.51 112.019 112.019 0 0 0 36.01-213.24zm-182.84 277.75a88 88 0 1 1 88-88 88.1 88.1 0 0 1 -88 88zm206.28-110.6a95.637 95.637 0 0 1 -62.89 30.32 7.956 7.956 0 0 0 -1.56.28h-38.13q.3-3.96.3-8a104 104 0 0 0 -208 0q0 4.035.3 8h-46.02a7.859 7.859 0 0 0 -1.62-.3 88 88 0 0 1 7.34-175.7c1.57 0 3.2.05 4.97.15a8 8 0 0 0 8-5.34 88.107 88.107 0 0 1 109.34-54.81 7.985 7.985 0 0 0 9.33-3.65 96.007 96.007 0 0 1 179.35 47.25 8.005 8.005 0 0 0 5 7.39 96.014 96.014 0 0 1 34.29 154.41z"/><path d="m144 384h-56a8 8 0 0 0 0 16h56a8 8 0 0 0 0-16z"/><path d="m440 384h-72a8 8 0 0 0 0 16h72a8 8 0 0 0 0-16z"/><path d="m272 376h-32a8 8 0 0 0 -8 8v32a8 8 0 0 0 8 8h32a8 8 0 0 0 8-8v-32a8 8 0 0 0 -8-8zm-8 32h-16v-16h16z"/><path d="m272 280h-32a8 8 0 0 0 -8 8v72a8 8 0 0 0 8 8h32a8 8 0 0 0 8-8v-72a8 8 0 0 0 -8-8zm-8 72h-16v-56h16z"/></g></g></svg>